<svg width="345" height="158" xmlns="http://www.w3.org/2000/svg">
 <!-- Created with Method Draw - http://github.com/duopixel/Method-Draw/ -->
 <g>
  <title>background</title>
  <rect fill="none" id="canvas_background" height="160" width="347" y="-1" x="-1"/>
 </g>
 <g>
  <title>Layer 1</title>
  <g stroke="null" id="svg_27">
   <g stroke="null" transform="matrix(1.3377620207892456,0,0,1.3377620207892456,-1488.4183201417084,-1060.2240071777167) " id="svg_10">
    <g fill="#000000" transform="matrix(0.05936288,0,0,-0.06685843,-80.564729,177.85001) " id="svg_9">
     <path stroke="null" fill="#3f51b5" d="m20414.814697,-9224.836975c-29,-14 -48,-32 -62,-60c-25,-47 -26,-85 -7,-178c8,-37 17,-86 20,-108c8,-48 39,-223 72,-400c37,-201 32,-223 -48,-211c-24,3 -79,9 -123,12c-77,6 -81,5 -107,-21c-60,-59 -60,-140 -2,-205c111,-122 401,-112 531,18c48,47 82,126 89,204c6,61 -2,118 -61,448c-9,47 -27,150 -41,230c-34,196 -38,211 -78,250c-45,43 -118,52 -183,21zm137,-68c23,-21 33,-41 40,-83c48,-281 58,-337 79,-450c45,-239 53,-316 42,-372c-32,-151 -146,-225 -335,-216c-132,6 -196,44 -196,116c0,58 25,76 92,68c160,-19 164,-19 197,-2c19,10 38,31 47,52c15,36 15,36 -35,309c-5,28 -14,79 -21,115c-6,36 -15,85 -20,110c-5,25 -19,102 -31,173l-23,127l21,28c42,57 97,66 143,25z" id="svg_1"/>
     <path stroke-opacity="0" stroke-width="1.000011" stroke-miterlimit="4" fill="#3f51b5" d="m24086.814697,-9315.836975c-52,-26 -83,-73 -97,-149l-12,-61l-51,0c-86,0 -135,-54 -135,-150c0,-44 5,-56 29,-81c16,-16 43,-32 60,-35c25,-5 30,-10 26,-28c-20,-85 -69,-297 -87,-371c-31,-128 -30,-192 5,-238c52,-68 161,-76 223,-16c41,40 41,40 104,314c28,121 53,227 56,237c4,13 17,16 62,15c72,-2 116,22 137,75c37,93 -1,171 -94,195c-38,10 -37,5 -21,88c7,36 9,81 6,100c-9,47 -59,102 -104,115c-51,14 -61,13 -107,-10zm128,-81c30,-33 32,-50 13,-130c-8,-31 -11,-69 -9,-83c6,-30 38,-56 69,-56c28,0 74,-43 74,-70c0,-22 -18,-60 -35,-73c-5,-4 -40,-6 -77,-5c-42,1 -72,-3 -82,-11c-8,-7 -20,-38 -26,-69c-6,-31 -20,-93 -30,-137c-10,-44 -28,-120 -40,-170c-36,-160 -42,-175 -72,-200c-34,-29 -68,-32 -103,-9c-27,17 -47,66 -40,98c7,35 60,264 102,439c20,85 11,110 -50,136c-62,27 -76,75 -36,125c18,23 27,26 74,24c63,-3 82,10 91,61c15,80 43,138 77,155c39,19 64,13 100,-25z" id="svg_2"/>
     <path stroke="null" fill="#1976d2" d="m21141.814697,-9421.836975c-122,-33 -220,-121 -260,-238c-18,-50 -20,-83 -20,-346c0,-263 2,-296 20,-346c43,-124 142,-209 278,-241l72,-17l0,-108c0,-181 25,-248 92,-248c29,0 54,21 212,180l180,180l373,0c237,0 391,4 425,11c111,24 217,100 264,190c38,75 44,126 44,399c0,273 -6,324 -44,399c-47,90 -153,166 -264,190c-36,7 -252,11 -685,10c-523,0 -641,-3 -687,-15zm342,-172c67,-24 130,-72 182,-139c122,-154 122,-391 1,-546c-92,-116 -189,-162 -328,-155c-69,3 -92,9 -145,38c-74,39 -135,104 -177,186c-29,57 -30,63 -30,204c0,141 1,147 30,203c52,105 131,177 233,213c53,19 177,17 234,-4zm975,-15c120,-62 210,-191 233,-331c29,-182 -69,-377 -233,-463c-47,-25 -62,-28 -157,-28c-90,0 -112,4 -152,24c-104,51 -184,147 -220,264c-27,89 -22,224 11,310c42,107 135,201 239,240c73,27 210,19 279,-16z" id="svg_3"/>
     <path stroke="#3f51b5" stroke-width="63.492792" stroke-miterlimit="4" fill="#1976d2" d="m21296.814697,-9746.836975c-45,-17 -103,-77 -122,-128c-22,-56 -24,-198 -4,-255c56,-160 258,-194 350,-60c87,127 59,345 -55,423c-38,26 -124,36 -169,20z" id="svg_4"/>
     <path stroke="#3f51b5" stroke-width="63.492792" stroke-miterlimit="4" fill="#1976d2" d="m22233.814697,-9747.836975c-47,-16 -108,-87 -126,-149c-69,-230 90,-442 270,-360c82,37 134,135 134,251c0,186 -129,305 -278,258z" id="svg_5"/>
     <path stroke="null" fill="#3f51b5" d="m23175.814697,-9520.836975c-118,-26 -216,-93 -258,-177c-21,-41 -26,-66 -26,-124c0,-180 92,-265 325,-300c165,-24 192,-42 111,-73c-35,-13 -46,-12 -127,8c-75,18 -96,20 -130,11c-81,-22 -126,-105 -98,-183c30,-87 194,-142 352,-119c145,21 261,93 311,195c54,106 25,269 -58,332c-65,49 -128,68 -341,101c-47,7 -61,19 -46,38c16,19 59,20 163,4c61,-9 83,-9 107,2c67,27 99,123 64,190c-23,44 -96,85 -179,99c-74,13 -93,13 -170,-4zm232,-81c60,-28 81,-64 65,-107c-15,-40 -50,-52 -105,-38c-60,15 -165,14 -196,-2c-56,-28 -62,-115 -10,-142c15,-8 58,-19 96,-25c152,-25 175,-30 216,-49c92,-44 128,-96 128,-186c0,-115 -76,-206 -208,-249c-77,-26 -239,-19 -303,12c-70,35 -82,78 -36,130c25,27 69,29 158,6c74,-19 133,-13 181,19c29,20 33,28 33,66c0,62 -23,76 -174,101c-135,23 -177,37 -229,77c-66,50 -93,171 -55,251c67,141 287,209 439,136z" id="svg_6"/>
     <path stroke="#3f51b5" fill="none" stroke-width="76.184723" stroke-miterlimit="4" d="m22162.341597,-9563.555675c-96.5838,-27.4204 -221.9372,-149.098 -258.9268,-255.3517c-141.7933,-394.16681 184.9477,-757.48585 554.8431,-616.95678c168.5078,63.40946 275.3665,231.35882 275.3665,430.15598c0,318.7611 -265.0917,522.6996 -571.2828,442.1525z" id="svg_7"/>
     <path stroke="#3f51b5" fill="none" stroke-width="73.366302" stroke-miterlimit="4" d="m21229.606397,-9566.721575c-92.6691,-26.5033 -212.9417,-144.1115 -248.432,-246.8116c-136.0462,-380.98408 177.4514,-732.15214 532.3543,-596.32297c161.6779,61.2888 264.2055,223.62111 264.2055,415.76967c0,308.1003 -254.3471,505.2181 -548.1278,427.3649z" id="svg_8"/>
    </g>
   </g>
  </g>
 </g>
</svg>