<?xml version="1.0" standalone="no"?>
<!DOCTYPE svg PUBLIC "-//W3C//DTD SVG 20010904//EN"
 "http://www.w3.org/TR/2001/REC-SVG-20010904/DTD/svg10.dtd">
<svg version="1.0" xmlns="http://www.w3.org/2000/svg"
 width="492.000000pt" height="214.000000pt" viewBox="0 0 492.000000 214.000000"
 preserveAspectRatio="xMidYMid meet">

<g transform="translate(0.000000,214.000000) scale(0.100000,-0.100000)"
fill="#000000" stroke="none">
<path d="M623 1881 c-29 -14 -48 -32 -62 -60 -25 -47 -26 -85 -7 -178 8 -37
17 -86 20 -108 8 -48 39 -223 72 -400 37 -201 32 -223 -48 -211 -24 3 -79 9
-123 12 -77 6 -81 5 -107 -21 -60 -59 -60 -140 -2 -205 111 -122 401 -112 531
18 48 47 82 126 89 204 6 61 -2 118 -61 448 -9 47 -27 150 -41 230 -34 196
-38 211 -78 250 -45 43 -118 52 -183 21z m137 -68 c23 -21 33 -41 40 -83 48
-281 58 -337 79 -450 45 -239 53 -316 42 -372 -32 -151 -146 -225 -335 -216
-132 6 -196 44 -196 116 0 58 25 76 92 68 160 -19 164 -19 197 -2 19 10 38 31
47 52 15 36 15 36 -35 309 -5 28 -14 79 -21 115 -6 36 -15 85 -20 110 -5 25
-19 102 -31 173 l-23 127 21 28 c42 57 97 66 143 25z"/>
<path d="M4295 1790 c-52 -26 -83 -73 -97 -149 l-12 -61 -51 0 c-86 0 -135
-54 -135 -150 0 -44 5 -56 29 -81 16 -16 43 -32 60 -35 25 -5 30 -10 26 -28
-20 -85 -69 -297 -87 -371 -31 -128 -30 -192 5 -238 52 -68 161 -76 223 -16
41 40 41 40 104 314 28 121 53 227 56 237 4 13 17 16 62 15 72 -2 116 22 137
75 37 93 -1 171 -94 195 -38 10 -37 5 -21 88 7 36 9 81 6 100 -9 47 -59 102
-104 115 -51 14 -61 13 -107 -10z m128 -81 c30 -33 32 -50 13 -130 -8 -31 -11
-69 -9 -83 6 -30 38 -56 69 -56 28 0 74 -43 74 -70 0 -22 -18 -60 -35 -73 -5
-4 -40 -6 -77 -5 -42 1 -72 -3 -82 -11 -8 -7 -20 -38 -26 -69 -6 -31 -20 -93
-30 -137 -10 -44 -28 -120 -40 -170 -36 -160 -42 -175 -72 -200 -34 -29 -68
-32 -103 -9 -27 17 -47 66 -40 98 7 35 60 264 102 439 20 85 11 110 -50 136
-62 27 -76 75 -36 125 18 23 27 26 74 24 63 -3 82 10 91 61 15 80 43 138 77
155 39 19 64 13 100 -25z"/>
<path d="M1350 1684 c-122 -33 -220 -121 -260 -238 -18 -50 -20 -83 -20 -346
0 -263 2 -296 20 -346 43 -124 142 -209 278 -241 l72 -17 0 -108 c0 -181 25
-248 92 -248 29 0 54 21 212 180 l180 180 373 0 c237 0 391 4 425 11 111 24
217 100 264 190 38 75 44 126 44 399 0 273 -6 324 -44 399 -47 90 -153 166
-264 190 -36 7 -252 11 -685 10 -523 0 -641 -3 -687 -15z m342 -172 c67 -24
130 -72 182 -139 122 -154 122 -391 1 -546 -92 -116 -189 -162 -328 -155 -69
3 -92 9 -145 38 -74 39 -135 104 -177 186 -29 57 -30 63 -30 204 0 141 1 147
30 203 52 105 131 177 233 213 53 19 177 17 234 -4z m975 -15 c120 -62 210
-191 233 -331 29 -182 -69 -377 -233 -463 -47 -25 -62 -28 -157 -28 -90 0
-112 4 -152 24 -104 51 -184 147 -220 264 -27 89 -22 224 11 310 42 107 135
201 239 240 73 27 210 19 279 -16z"/>
<path d="M1505 1359 c-45 -17 -103 -77 -122 -128 -22 -56 -24 -198 -4 -255 56
-160 258 -194 350 -60 87 127 59 345 -55 423 -38 26 -124 36 -169 20z"/>
<path d="M2442 1358 c-47 -16 -108 -87 -126 -149 -69 -230 90 -442 270 -360
82 37 134 135 134 251 0 186 -129 305 -278 258z"/>
<path d="M3384 1585 c-118 -26 -216 -93 -258 -177 -21 -41 -26 -66 -26 -124 0
-180 92 -265 325 -300 165 -24 192 -42 111 -73 -35 -13 -46 -12 -127 8 -75 18
-96 20 -130 11 -81 -22 -126 -105 -98 -183 30 -87 194 -142 352 -119 145 21
261 93 311 195 54 106 25 269 -58 332 -65 49 -128 68 -341 101 -47 7 -61 19
-46 38 16 19 59 20 163 4 61 -9 83 -9 107 2 67 27 99 123 64 190 -23 44 -96
85 -179 99 -74 13 -93 13 -170 -4z m232 -81 c60 -28 81 -64 65 -107 -15 -40
-50 -52 -105 -38 -60 15 -165 14 -196 -2 -56 -28 -62 -115 -10 -142 15 -8 58
-19 96 -25 152 -25 175 -30 216 -49 92 -44 128 -96 128 -186 0 -115 -76 -206
-208 -249 -77 -26 -239 -19 -303 12 -70 35 -82 78 -36 130 25 27 69 29 158 6
74 -19 133 -13 181 19 29 20 33 28 33 66 0 62 -23 76 -174 101 -135 23 -177
37 -229 77 -66 50 -93 171 -55 251 67 141 287 209 439 136z"/>
</g>
</svg>
